<?xml version="1.0" encoding="UTF-8"?>
<svg version="1.1" xmlns="http://www.w3.org/2000/svg" width="36" height="32">
<path d="M0 0 C1.15757813 -0.00257812 2.31515625 -0.00515625 3.5078125 -0.0078125 C4.72210938 -0.00007812 5.93640625 0.00765625 7.1875 0.015625 C8.40179687 0.00789062 9.61609375 0.00015625 10.8671875 -0.0078125 C12.60355469 -0.00394531 12.60355469 -0.00394531 14.375 0 C15.44105469 0.00225586 16.50710937 0.00451172 17.60546875 0.00683594 C20.1875 0.265625 20.1875 0.265625 22.1875 2.265625 C22.44628906 4.6640625 22.44628906 4.6640625 22.453125 7.640625 C22.45699219 9.24164062 22.45699219 9.24164062 22.4609375 10.875 C22.45320313 11.99390625 22.44546875 13.1128125 22.4375 14.265625 C22.44523437 15.38453125 22.45296875 16.5034375 22.4609375 17.65625 C22.45835938 18.72359375 22.45578125 19.7909375 22.453125 20.890625 C22.45086914 21.87289063 22.44861328 22.85515625 22.44628906 23.8671875 C22.1875 26.265625 22.1875 26.265625 20.1875 28.265625 C15.44674174 29.59534988 10.80451036 29.25742707 5.9296875 29.10546875 C2.96851809 29.04671473 2.96851809 29.04671473 0.1875 31.265625 C-2.3125 31.703125 -2.3125 31.703125 -4.8125 31.265625 C-7.51250193 27.67382749 -8.18949828 25.04530984 -8.17578125 20.59765625 C-8.17513672 19.53998047 -8.17449219 18.48230469 -8.17382812 17.39257812 C-8.15771484 16.29880859 -8.14160156 15.20503906 -8.125 14.078125 C-8.12822266 12.97275391 -8.13144531 11.86738281 -8.13476562 10.72851562 C-8.06270079 0.01706134 -8.06270079 0.01706134 0 0 Z " fill="#282C2D" transform="translate(10.8125,0.734375)"/>
<path d="M0 0 C4.29161047 -0.05783842 8.58312145 -0.0935412 12.875 -0.125 C14.09832031 -0.14175781 15.32164063 -0.15851562 16.58203125 -0.17578125 C17.74863281 -0.18222656 18.91523438 -0.18867188 20.1171875 -0.1953125 C21.19597168 -0.20578613 22.27475586 -0.21625977 23.38623047 -0.22705078 C26 0 26 0 28 2 C28.25878906 4.3984375 28.25878906 4.3984375 28.265625 7.375 C28.26949219 8.97601562 28.26949219 8.97601562 28.2734375 10.609375 C28.26570313 11.72828125 28.25796875 12.8471875 28.25 14 C28.25773437 15.11890625 28.26546875 16.2378125 28.2734375 17.390625 C28.27085938 18.45796875 28.26828125 19.5253125 28.265625 20.625 C28.26336914 21.60726563 28.26111328 22.58953125 28.25878906 23.6015625 C28 26 28 26 26 28 C21.25924174 29.32972488 16.61701036 28.99180207 11.7421875 28.83984375 C8.78101809 28.78108973 8.78101809 28.78108973 6 31 C3.8125 30.625 3.8125 30.625 2 30 C1.67 28.68 1.34 27.36 1 26 C1.99 26 2.98 26 4 26 C4 26.66 4 27.32 4 28 C4.99 27.34 5.98 26.68 7 26 C9.89706142 25.72395387 12.72248263 25.53568747 15.625 25.4375 C20.716687 25.70314836 20.716687 25.70314836 25 24 C25.09880797 22.52347336 25.13079245 21.04232764 25.1328125 19.5625 C25.13410156 18.66789062 25.13539062 17.77328125 25.13671875 16.8515625 C25.13091797 15.44003906 25.13091797 15.44003906 25.125 14 C25.12886719 13.05898437 25.13273437 12.11796875 25.13671875 11.1484375 C25.13478516 9.80652344 25.13478516 9.80652344 25.1328125 8.4375 C25.13168457 7.61121094 25.13055664 6.78492188 25.12939453 5.93359375 C25.21264807 3.99320961 25.21264807 3.99320961 24 3 C22.37742456 2.9008343 20.75060169 2.86920223 19.125 2.8671875 C18.14015625 2.86589844 17.1553125 2.86460938 16.140625 2.86328125 C14.58601563 2.86908203 14.58601563 2.86908203 13 2.875 C11.96359375 2.87113281 10.9271875 2.86726562 9.859375 2.86328125 C8.87453125 2.86457031 7.8896875 2.86585937 6.875 2.8671875 C5.96492187 2.86831543 5.05484375 2.86944336 4.1171875 2.87060547 C2.0147152 2.76439991 2.0147152 2.76439991 1 4 C0.84379445 5.41327947 0.74943827 6.8335459 0.68359375 8.25390625 C0.64169922 9.10791016 0.59980469 9.96191406 0.55664062 10.84179688 C0.51732422 11.73962891 0.47800781 12.63746094 0.4375 13.5625 C0.39431641 14.46419922 0.35113281 15.36589844 0.30664062 16.29492188 C0.20021858 18.52978485 0.09820012 20.76476308 0 23 C-0.33 23 -0.66 23 -1 23 C-1.02902429 19.72918529 -1.04680684 16.4584037 -1.0625 13.1875 C-1.07087891 12.25873047 -1.07925781 11.32996094 -1.08789062 10.37304688 C-1.09111328 9.48037109 -1.09433594 8.58769531 -1.09765625 7.66796875 C-1.10289307 6.84578857 -1.10812988 6.0236084 -1.11352539 5.17651367 C-1 3 -1 3 0 0 Z " fill="#20241F" transform="translate(5,1)"/>
<path d="M0 0 C0.05384521 2.29141286 0.09272087 4.58318188 0.125 6.875 C0.14820312 8.15117187 0.17140625 9.42734375 0.1953125 10.7421875 C0 14 0 14 -2 16 C-4.74485593 16.14507695 -7.38480543 16.18652423 -10.125 16.125 C-10.87910156 16.11597656 -11.63320313 16.10695313 -12.41015625 16.09765625 C-14.27357254 16.0740687 -16.13682593 16.03819719 -18 16 C-18 15.34 -18 14.68 -18 14 C-15.36 14 -12.72 14 -10 14 C-10 11.03 -10 8.06 -10 5 C-9.34 5 -8.68 5 -8 5 C-7.67 4.01 -7.34 3.02 -7 2 C-4.56723614 0.81480735 -2.71982714 0 0 0 Z " fill="#773685" transform="translate(31,11)"/>
<path d="M0 0 C0.90492187 0.02320313 1.80984375 0.04640625 2.7421875 0.0703125 C4.10730469 0.09738281 4.10730469 0.09738281 5.5 0.125 C6.19867188 0.14820313 6.89734375 0.17140625 7.6171875 0.1953125 C7.6171875 0.8553125 7.6171875 1.5153125 7.6171875 2.1953125 C6.6271875 2.5253125 5.6371875 2.8553125 4.6171875 3.1953125 C0.65883534 7.76264191 0.90974445 13.43496702 0.6171875 19.1953125 C-1.0328125 19.8553125 -2.6828125 20.5153125 -4.3828125 21.1953125 C-4.44073094 18.07038999 -4.47637996 14.94560484 -4.5078125 11.8203125 C-4.52457031 10.93085938 -4.54132812 10.04140625 -4.55859375 9.125 C-4.56503906 8.27421875 -4.57148437 7.4234375 -4.578125 6.546875 C-4.58859863 5.76135254 -4.59907227 4.97583008 -4.60986328 4.16650391 C-4.24842471 1.02859526 -3.06068806 0.25087607 0 0 Z " fill="#D54D29" transform="translate(9.3828125,2.8046875)"/>
<path d="M0 0 C1.62463842 -0.05395478 3.24978541 -0.09277195 4.875 -0.125 C5.77992187 -0.14820313 6.68484375 -0.17140625 7.6171875 -0.1953125 C10 0 10 0 12 2 C12.125 5.125 12.125 5.125 12 8 C10.865625 8.45375 9.73125 8.9075 8.5625 9.375 C4.95278308 10.57095806 4.95278308 10.57095806 4 13 C3.34 13 2.68 13 2 13 C-1.20224719 3.60674157 -1.20224719 3.60674157 0 0 Z " fill="#147AAC" transform="translate(19,3)"/>
<path d="M0 0 C2.31 0 4.62 0 7 0 C7 3.3 7 6.6 7 10 C4.69 10 2.38 10 0 10 C0 6.7 0 3.4 0 0 Z " fill="#E9E4DD" transform="translate(12,13)"/>
<path d="M0 0 C1.22625047 2.45250093 1.03425355 3.84310435 0.87890625 6.5703125 C0.83056641 7.46621094 0.78222656 8.36210937 0.73242188 9.28515625 C0.67634766 10.22230469 0.62027344 11.15945313 0.5625 12.125 C0.51029297 13.06988281 0.45808594 14.01476563 0.40429688 14.98828125 C0.27443239 17.3258419 0.1394613 19.66299545 0 22 C1.98 21.34 3.96 20.68 6 20 C6 20.99 6 21.98 6 23 C6.99 23 7.98 23 9 23 C8.34 24.32 7.68 25.64 7 27 C6.34 27 5.68 27 5 27 C5 26.34 5 25.68 5 25 C4.34 25.33 3.68 25.66 3 26 C3.33 27.32 3.66 28.64 4 30 C3.34 30 2.68 30 2 30 C-0.70654609 26.3841335 -1.37105879 23.76643007 -1.328125 19.296875 C-1.32296875 18.2346875 -1.3178125 17.1725 -1.3125 16.078125 C-1.291875 14.97984375 -1.27125 13.8815625 -1.25 12.75 C-1.24484375 11.63625 -1.2396875 10.5225 -1.234375 9.375 C-1.1541718 1.1541718 -1.1541718 1.1541718 0 0 Z " fill="#383B36" transform="translate(4,2)"/>
<path d="M0 0 C0.99 0.33 1.98 0.66 3 1 C2.67 1.33 2.34 1.66 2 2 C1.76636119 3.84891946 1.58696365 5.70488031 1.4375 7.5625 C1.35371094 8.57441406 1.26992187 9.58632813 1.18359375 10.62890625 C1.12300781 11.41136719 1.06242188 12.19382812 1 13 C-0.65 13.66 -2.3 14.32 -4 15 C-4.63019694 5.98468271 -4.63019694 5.98468271 -2 1.875 C-1.34 1.25625 -0.68 0.6375 0 0 Z " fill="#D28D2E" transform="translate(9,9)"/>
<path d="M0 0 C5.28 0 10.56 0 16 0 C15.67 0.66 15.34 1.32 15 2 C12.09375 2.37890625 12.09375 2.37890625 8.5 2.5625 C4.43001233 2.41799469 4.43001233 2.41799469 1 4 C0.84379445 5.41327947 0.74943827 6.8335459 0.68359375 8.25390625 C0.64169922 9.10791016 0.59980469 9.96191406 0.55664062 10.84179688 C0.51732422 11.73962891 0.47800781 12.63746094 0.4375 13.5625 C0.39431641 14.46419922 0.35113281 15.36589844 0.30664062 16.29492188 C0.20021858 18.52978485 0.09820012 20.76476308 0 23 C-0.33 23 -0.66 23 -1 23 C-1.02902429 19.72918529 -1.04680684 16.4584037 -1.0625 13.1875 C-1.07087891 12.25873047 -1.07925781 11.32996094 -1.08789062 10.37304688 C-1.09111328 9.48037109 -1.09433594 8.58769531 -1.09765625 7.66796875 C-1.10289307 6.84578857 -1.10812988 6.0236084 -1.11352539 5.17651367 C-1 3 -1 3 0 0 Z " fill="#212018" transform="translate(5,1)"/>
<path d="M0 0 C0.66 0.33 1.32 0.66 2 1 C1.34 1.66 0.68 2.32 0 3 C0.99 3.33 1.98 3.66 3 4 C3.6875 6.0625 3.6875 6.0625 4 8 C3.360625 8.12375 2.72125 8.2475 2.0625 8.375 C1.381875 8.58125 0.70125 8.7875 0 9 C-0.33 9.66 -0.66 10.32 -1 11 C-1.66 11 -2.32 11 -3 11 C-3.66 8.03 -4.32 5.06 -5 2 C-2.625 0.9375 -2.625 0.9375 0 0 Z " fill="#2170A5" transform="translate(24,5)"/>
<path d="M0 0 C1.2065625 0.0309375 1.2065625 0.0309375 2.4375 0.0625 C2.4375 2.0425 2.4375 4.0225 2.4375 6.0625 C0.1275 6.0625 -2.1825 6.0625 -4.5625 6.0625 C-3.48963568 0.08511307 -3.48963568 0.08511307 0 0 Z " fill="#9C307C" transform="translate(25.5625,19.9375)"/>
<path d="M0 0 C3.125 0.375 3.125 0.375 6 1 C6.33 1.99 6.66 2.98 7 4 C4.36 4 1.72 4 -1 4 C-1 6.64 -1 9.28 -1 12 C-1.33 12 -1.66 12 -2 12 C-2.05395478 10.37536158 -2.09277195 8.75021459 -2.125 7.125 C-2.14820313 6.22007813 -2.17140625 5.31515625 -2.1953125 4.3828125 C-2 2 -2 2 0 0 Z " fill="#5F563E" transform="translate(12,9)"/>
<path d="M0 0 C0.33 0.99 0.66 1.98 1 3 C1.99 3 2.98 3 4 3 C3.34 4.32 2.68 5.64 2 7 C1.34 7 0.68 7 0 7 C0 6.34 0 5.68 0 5 C-1.32 4.34 -2.64 3.68 -4 3 C-2.68 2.01 -1.36 1.02 0 0 Z " fill="#2179A4" transform="translate(9,22)"/>
<path d="M0 0 C0.33 0 0.66 0 1 0 C1 2.64 1 5.28 1 8 C-0.32 8.33 -1.64 8.66 -3 9 C-3 6.69 -3 4.38 -3 2 C-2.01 2 -1.02 2 0 2 C0 1.34 0 0.68 0 0 Z " fill="#EEAF25" transform="translate(9,13)"/>
<path d="M0 0 C0.33 0 0.66 0 1 0 C1.33 6.93 1.66 13.86 2 21 C1.34 21.33 0.68 21.66 0 22 C-0.97556564 19.07330309 -1.0606341 17.55938679 -0.87890625 14.55078125 C-0.83056641 13.70322266 -0.78222656 12.85566406 -0.73242188 11.98242188 C-0.67634766 11.10134766 -0.62027344 10.22027344 -0.5625 9.3125 C-0.51029297 8.41982422 -0.45808594 7.52714844 -0.40429688 6.60742188 C-0.2747182 4.4045844 -0.13975754 2.20221127 0 0 Z " fill="#292929" transform="translate(31,6)"/>
<path d="M0 0 C0.66 0 1.32 0 2 0 C2 0.99 2 1.98 2 3 C1.34 3 0.68 3 0 3 C0 3.99 0 4.98 0 6 C-1.32 6 -2.64 6 -4 6 C-3.67 4.68 -3.34 3.36 -3 2 C-2.01 2 -1.02 2 0 2 C0 1.34 0 0.68 0 0 Z " fill="#594C4A" transform="translate(17,3)"/>
<path d="M0 0 C0.66 0.33 1.32 0.66 2 1 C1.34 1.66 0.68 2.32 0 3 C0.66 3.66 1.32 4.32 2 5 C-0.31 4.67 -2.62 4.34 -5 4 C-5 3.34 -5 2.68 -5 2 C-2.625 0.9375 -2.625 0.9375 0 0 Z " fill="#1B2E30" transform="translate(24,5)"/>
</svg>
